# xmcd
#
# Track frame offsets:
#	150
#	16445
#	30990
#	48067
#	61775
#	81862
#	98982
#	117592
#	134612
#	149345
#	166962
#	183257
#	197802
#	214882
#	228587
#	248675
#	265795
#	284407
#	301430
#	316160
#
# Disc length: 4738 seconds
#
# Revision: 1
# Processed by: cddbd v1.5.2PL0 Copyright (c) Steve Scherf et al.
# Submitted via: audiograbber 1.83.01
#
DISCID=1b128014
DTITLE=Various Artist - tophits9907-C
DYEAR=1900
DGENRE=Country
TTITLE0=Dixie Chicks 1 Tonight the heartache's on me (vocals)
TTITLE1=Kenny Rogers 2 The greatest (vocals)
TTITLE2=Brad Paisley 3 Who needs pictures (vocals)
TTITLE3=Sara Evans 4 Fool I'm a woman (vocals)
TTITLE4=Deana Carter 5 Angels working overtime (vocals)
TTITLE5=BILLY RAY CYRUS 6 Give my heart to you (vocals)
TTITLE6=Lonestar 7 Amazed (vocals)
TTITLE7=Craig Morgan 8 Almost home (vocals)
TTITLE8=Chely Wright 9 Single white female (vocals)
TTITLE9=Kenny Chesney 10 You had me from hello (vocals)
TTITLE10=Dixie Chicks 11 Tonight the heartache's on me
TTITLE11=Kenny Rogers 12 The greatest
TTITLE12=Brad Paisley 13 Who needs pictures
TTITLE13=Sara Evans 14 Fool I'm a woman
TTITLE14=Deana Carter 15 Angels working overtime
TTITLE15=BILLY RAY CYRUS 16 Give my heart to you
TTITLE16=Lonestar 17 Amazed
TTITLE17=Craig Morgan 18 Almost home
TTITLE18=Chely Wright 19 Single white female
TTITLE19=Kenny Chesney 20 You had me from hello
EXTD=
EXTT0=
EXTT1=
EXTT2=
EXTT3=
EXTT4=
EXTT5=
EXTT6=
EXTT7=
EXTT8=
EXTT9=
EXTT10=
EXTT11=
EXTT12=
EXTT13=
EXTT14=
EXTT15=
EXTT16=
EXTT17=
EXTT18=
EXTT19=
PLAYORDER=
